<svg width="26" height="23" viewBox="0 0 26 23" fill="none" xmlns="http://www.w3.org/2000/svg">
<path d="M13.0088 0.5C13.3786 0.5 13.7416 0.618449 14.0479 0.841797L14.0566 0.848633L25.2822 8.6748C25.3867 8.7521 25.4637 8.87128 25.4902 9.01172C25.5169 9.15327 25.4889 9.29876 25.416 9.41699C25.3706 9.48825 25.3107 9.54503 25.2422 9.58301C25.173 9.62127 25.0965 9.64064 25.0205 9.63965L25.0078 9.63867L24.9951 9.63965C24.8969 9.64333 24.7988 9.61937 24.71 9.57031L23.2979 8.5918L22.5127 8.04785V18.8428C22.5126 19.8187 22.1393 20.751 21.4805 21.4355C20.8223 22.1193 19.9339 22.4999 19.0117 22.5H7.00684C6.08447 22.5 5.19538 22.1195 4.53711 21.4355C3.8784 20.7511 3.50498 19.8186 3.50488 18.8428V8.04785L2.7207 8.5918L1.28027 9.58984L1.27832 9.59082C1.16828 9.66759 1.03653 9.69442 0.911133 9.66895C0.785272 9.64329 0.668511 9.5652 0.59082 9.44531C0.512768 9.32463 0.482085 9.17324 0.509766 9.02637C0.537428 8.87986 0.618769 8.75522 0.729492 8.67773L0.730469 8.67871L11.9609 0.848633L11.9697 0.841797C12.2759 0.618363 12.6389 0.500067 13.0088 0.5ZM10.3418 17.2617C9.93758 17.2617 9.55321 17.4281 9.27344 17.7188C8.9943 18.0088 8.84083 18.3986 8.84082 18.8008C8.84082 19.203 8.99429 19.5928 9.27344 19.8828C9.55321 20.1735 9.93756 20.3398 10.3418 20.3398H15.6768C16.0808 20.3398 16.4644 20.1733 16.7441 19.8828C17.0233 19.5928 17.1768 19.203 17.1768 18.8008C17.1768 18.3986 17.0233 18.0088 16.7441 17.7188C16.4644 17.4283 16.0808 17.2617 15.6768 17.2617H10.3418Z" fill="white" stroke="black"/>
</svg>
